<svg width="800" height="400" xmlns="http://www.w3.org/2000/svg">
  <defs>
    <style>
      .title { font: bold 14px sans-serif; fill: #374151; }
      .subtitle { font: 12px sans-serif; fill: #6b7280; }
      .box { fill: #f3f4f6; stroke: #d1d5db; stroke-width: 2; rx: 8; }
      .client-box { fill: #dbeafe; stroke: #3b82f6; stroke-width: 2; }
      .server-box { fill: #fef3c7; stroke: #f59e0b; stroke-width: 2; }
      .db-box { fill: #d1fae5; stroke: #10b981; stroke-width: 2; }
      .arrow { stroke: #374151; stroke-width: 2; fill: none; marker-end: url(#arrowhead); }
      .step-text { font: 10px sans-serif; fill: #374151; }
    </style>
    <marker id="arrowhead" markerWidth="10" markerHeight="7" refX="9" refY="3.5" orient="auto">
      <polygon points="0 0, 10 3.5, 0 7" fill="#374151"/>
    </marker>
  </defs>
  
  <!-- Title -->
  <text x="400" y="25" text-anchor="middle" class="title">Supabase Storage 이미지 업로드 최적화 파이프라인</text>
  
  <!-- Client (Next.js / React Native) -->
  <rect x="50" y="60" width="140" height="80" class="client-box"/>
  <text x="120" y="85" text-anchor="middle" class="title">Client</text>
  <text x="120" y="105" text-anchor="middle" class="subtitle">Next.js</text>
  <text x="120" y="120" text-anchor="middle" class="subtitle">React Native</text>
  
  <!-- BFF Server (Node.js) -->
  <rect x="330" y="60" width="140" height="80" class="server-box"/>
  <text x="400" y="85" text-anchor="middle" class="title">BFF Server</text>
  <text x="400" y="105" text-anchor="middle" class="subtitle">Node.js</text>
  <text x="400" y="120" text-anchor="middle" class="subtitle">Express API</text>
  
  <!-- Supabase -->
  <rect x="610" y="40" width="140" height="120" class="db-box"/>
  <text x="680" y="65" text-anchor="middle" class="title">Supabase</text>
  <text x="680" y="85" text-anchor="middle" class="subtitle">Database</text>
  <text x="680" y="105" text-anchor="middle" class="subtitle">Storage</text>
  <text x="680" y="125" text-anchor="middle" class="subtitle">CDN</text>
  <text x="680" y="145" text-anchor="middle" class="subtitle">Edge Functions</text>
  
  <!-- Step 1: Client -> BFF (Signed URL Request) -->
  <line x1="190" y1="90" x2="330" y2="90" class="arrow"/>
  <text x="260" y="85" text-anchor="middle" class="step-text">1. 서명 URL 요청</text>
  <text x="260" y="100" text-anchor="middle" class="step-text">(파일 확장자)</text>
  
  <!-- Step 2: BFF -> Supabase (Create Signed URL) -->
  <line x1="470" y1="90" x2="610" y2="90" class="arrow"/>
  <text x="540" y="85" text-anchor="middle" class="step-text">2. Signed URL 생성</text>
  
  <!-- Step 3: Supabase -> BFF (Return URL) -->
  <line x1="610" y1="110" x2="470" y2="110" class="arrow"/>
  <text x="540" y="125" text-anchor="middle" class="step-text">3. URL 반환</text>
  
  <!-- Step 4: BFF -> Client (Return URL) -->
  <line x1="330" y1="110" x2="190" y2="110" class="arrow"/>
  <text x="260" y="125" text-anchor="middle" class="step-text">4. URL 전달</text>
  
  <!-- Step 5: Client -> Supabase (Direct Upload) -->
  <path d="M 120 140 Q 120 200 680 200 Q 680 180 680 160" class="arrow"/>
  <text x="400" y="210" text-anchor="middle" class="step-text">5. 이미지 직접 업로드 (PUT)</text>
  
  <!-- Step 6: Client -> BFF (Metadata) -->
  <line x1="190" y1="130" x2="330" y2="130" class="arrow"/>
  <text x="260" y="145" text-anchor="middle" class="step-text">6. 메타데이터 전송</text>
  <text x="260" y="160" text-anchor="middle" class="step-text">(title, content, path)</text>
  
  <!-- Step 7: BFF -> Supabase (Save Metadata) -->
  <line x1="470" y1="130" x2="610" y2="130" class="arrow"/>
  <text x="540" y="145" text-anchor="middle" class="step-text">7. DB 저장</text>
  
  <!-- Benefits Box -->
  <rect x="50" y="280" width="700" height="80" class="box"/>
  <text x="400" y="305" text-anchor="middle" class="title">핵심 장점</text>
  <text x="150" y="325" class="subtitle">• 서버 부하 최소화 (파일 업로드 우회)</text>
  <text x="150" y="340" class="subtitle">• React Native 확장성</text>
  <text x="450" y="325" class="subtitle">• CDN + 즉석 이미지 변환</text>
  <text x="450" y="340" class="subtitle">• 비용 효율성 (무료 tier 활용)</text>
</svg> 